# xmcd
#
# Track frame offsets: 
#        150
#        15750
#        33350
#        50371
#        67955
#        78785
#        94514
#        110621
#        128248
#        144769
#        160099
#        170197
#
# Disc length: 2504 seconds
#
# Revision: 0
# Processed by: cddbd v1.5.2PL0 Copyright (c) Steve Scherf et al.
# Submitted via: ExactAudioCopy v0.95b4
#
DISCID=8809c60c
DTITLE=เอกชัย ศรีวิชัย - 7ดาว ศรีวิชัย
DYEAR=2007
DGENRE=Country
TTITLE0=อัศจรรย์
TTITLE1=ชายใจหญิง
TTITLE2=กรีดยางสร้างรัก
TTITLE3=สงสารแม่หม้าย
TTITLE4=โลตัส
TTITLE5=เอามือออกมา
TTITLE6=หัวใจไซแล้ว
TTITLE7=ฉันผิดตรงไหน
TTITLE8=คำหล้า 50
TTITLE9=หนุ่มสงขลากับพม่าระนอง
TTITLE10=สาวนากับเจ้าทุ่ย
TTITLE11=ไม่แต่งไม่ง้อ
EXTD=
EXTT0=
EXTT1=
EXTT2=
EXTT3=
EXTT4=
EXTT5=
EXTT6=
EXTT7=
EXTT8=
EXTT9=
EXTT10=
EXTT11=
PLAYORDER=
